<svg width="516mm" height="303mm" viewBox="0 0 516 303" xmlns="http://www.w3.org/2000/svg" version="1.1" preserveAspectRatio="xMidYMid meet"><g id="svgGroup" stroke-linecap="round" fill-rule="evenodd" font-size="9pt" stroke="#000" stroke-width="0.25mm" fill="none" style="stroke:#000;stroke-width:0.25mm;fill:none"><path d="M 0 251 L 0 292 L 0 303 L 15 303 L 15 288 L 45 288 L 45 303 L 75 303 L 75 288 L 105 288 L 105 303 L 135 303 L 135 288 L 165 288 L 165 303 L 180 303 L 180 262 L 180 251 L 165 251 L 165 266 L 135 266 L 135 251 L 105 251 L 105 266 L 75 266 L 75 251 L 45 251 L 45 266 L 15 266 L 15 251 L 0 251 Z" id="front_outsideCutPath" stroke="#FF0000" stroke-width="0.1" style="stroke:#FF0000;stroke-width:0.1" vector-effect="non-scaling-stroke"/><path d="M 97.579 280.928 L 96.736 280.928 L 96.736 277.327 A 2.383 2.383 0 0 0 96.709 276.954 Q 96.644 276.547 96.426 276.312 Q 96.176 276.04 95.695 275.989 A 2.235 2.235 0 0 0 95.456 275.977 Q 94.583 275.977 94.177 276.449 A 1.378 1.378 0 0 0 93.937 276.868 Q 93.771 277.312 93.771 278.008 L 93.771 280.928 L 92.928 280.928 L 92.928 275.362 L 93.613 275.362 L 93.75 276.124 L 93.791 276.124 A 1.707 1.707 0 0 1 94.459 275.516 A 2.053 2.053 0 0 1 94.517 275.487 A 2.283 2.283 0 0 1 95.329 275.27 A 2.76 2.76 0 0 1 95.558 275.261 A 3.328 3.328 0 0 1 96.125 275.306 Q 96.718 275.408 97.071 275.746 Q 97.579 276.231 97.579 277.297 L 97.579 280.928 Z M 81.385 275.362 L 81.385 276.017 L 79.968 276.017 L 79.968 280.928 L 79.125 280.928 L 79.125 276.017 L 78.13 276.017 L 78.13 275.636 L 79.125 275.332 L 79.125 275.022 A 3.416 3.416 0 0 1 79.205 274.248 Q 79.452 273.192 80.461 273.009 A 2.562 2.562 0 0 1 80.918 272.97 A 2.715 2.715 0 0 1 81.302 273 Q 81.489 273.027 81.697 273.078 A 5.457 5.457 0 0 1 81.954 273.148 L 81.735 273.824 Q 81.389 273.712 81.115 273.679 A 1.813 1.813 0 0 0 80.903 273.666 Q 80.425 273.666 80.197 273.983 A 0.975 0.975 0 0 0 80.068 274.243 Q 79.968 274.539 79.968 275.002 L 79.968 275.362 L 81.385 275.362 Z M 101.87 280.232 L 101.87 280.877 A 0.829 0.829 0 0 1 101.772 280.916 Q 101.667 280.951 101.517 280.978 A 3.153 3.153 0 0 1 101.466 280.986 Q 101.218 281.027 101.015 281.029 A 2.16 2.16 0 0 1 100.987 281.029 A 2.202 2.202 0 0 1 100.338 280.942 Q 99.625 280.722 99.438 279.947 A 2.65 2.65 0 0 1 99.372 279.328 L 99.372 276.017 L 98.574 276.017 L 98.574 275.611 L 99.372 275.261 L 99.727 274.072 L 100.215 274.072 L 100.215 275.362 L 101.829 275.362 L 101.829 276.017 L 100.215 276.017 L 100.215 279.293 A 1.697 1.697 0 0 0 100.239 279.591 Q 100.291 279.882 100.453 280.065 A 0.783 0.783 0 0 0 100.935 280.321 A 1.127 1.127 0 0 0 101.108 280.334 A 2.768 2.768 0 0 0 101.514 280.305 A 2.547 2.547 0 0 0 101.54 280.301 A 4.56 4.56 0 0 0 101.662 280.28 Q 101.786 280.257 101.87 280.232 Z M 85.605 275.322 L 85.488 276.104 A 3.715 3.715 0 0 0 85.221 276.054 Q 85.088 276.035 84.969 276.03 A 1.977 1.977 0 0 0 84.879 276.027 A 1.461 1.461 0 0 0 83.8 276.494 A 1.998 1.998 0 0 0 83.723 276.576 A 1.925 1.925 0 0 0 83.259 277.657 A 2.559 2.559 0 0 0 83.244 277.942 L 83.244 280.928 L 82.401 280.928 L 82.401 275.362 L 83.096 275.362 L 83.193 276.393 L 83.233 276.393 A 2.847 2.847 0 0 1 83.552 275.938 A 2.175 2.175 0 0 1 83.98 275.555 A 1.68 1.68 0 0 1 84.94 275.261 A 3.87 3.87 0 0 1 85.286 275.275 A 2.825 2.825 0 0 1 85.605 275.322 Z M 91.372 278.987 A 4.354 4.354 0 0 0 91.45 278.14 A 4.947 4.947 0 0 0 91.448 278.006 Q 91.435 277.543 91.335 277.149 A 2.625 2.625 0 0 0 90.762 276.038 A 2.207 2.207 0 0 0 89.737 275.377 A 2.833 2.833 0 0 0 88.906 275.261 Q 87.697 275.261 87.017 276.02 Q 86.565 276.524 86.413 277.293 A 4.377 4.377 0 0 0 86.336 278.14 A 4.217 4.217 0 0 0 86.389 278.823 A 3.118 3.118 0 0 0 86.651 279.674 Q 86.966 280.329 87.545 280.679 A 2.347 2.347 0 0 0 88.084 280.919 A 2.707 2.707 0 0 0 88.87 281.029 A 3.273 3.273 0 0 0 89.442 280.982 A 2.247 2.247 0 0 0 90.764 280.265 A 2.352 2.352 0 0 0 91.044 279.88 Q 91.273 279.49 91.372 278.987 Z M 87.389 279.31 A 1.768 1.768 0 0 0 87.636 279.765 A 1.382 1.382 0 0 0 88.536 280.295 A 2.094 2.094 0 0 0 88.89 280.324 A 1.958 1.958 0 0 0 89.407 280.259 A 1.363 1.363 0 0 0 90.147 279.767 A 1.81 1.81 0 0 0 90.429 279.219 Q 90.512 278.965 90.548 278.655 A 4.44 4.44 0 0 0 90.576 278.14 Q 90.576 277.079 90.147 276.528 A 1.387 1.387 0 0 0 89.285 276.013 A 2.126 2.126 0 0 0 88.88 275.977 A 2.006 2.006 0 0 0 88.381 276.035 A 1.343 1.343 0 0 0 87.631 276.52 Q 87.328 276.911 87.243 277.579 A 4.454 4.454 0 0 0 87.21 278.14 Q 87.21 278.832 87.389 279.31 Z" id="front_labelLayer" stroke="#777777" fill="#777777" style="stroke:#777777;fill:#777777" vector-effect="non-scaling-stroke"/><path d="M 198 251 L 198 292 L 198 303 L 213 303 L 213 288 L 243 288 L 243 303 L 273 303 L 273 288 L 303 288 L 303 303 L 333 303 L 318 303 L 318 262 L 318 251 L 303 251 L 303 266 L 273 266 L 273 251 L 243 251 L 243 266 L 213 266 L 213 251 L 183 251 L 198 251 Z" id="left_outsideCutPath" stroke="#FF0000" stroke-width="0.1" style="stroke:#FF0000;stroke-width:0.1" vector-effect="non-scaling-stroke"/><path d="M 261.699 275.362 L 261.699 276.017 L 260.283 276.017 L 260.283 280.928 L 259.44 280.928 L 259.44 276.017 L 258.444 276.017 L 258.444 275.636 L 259.44 275.332 L 259.44 275.022 A 3.416 3.416 0 0 1 259.519 274.248 Q 259.766 273.192 260.776 273.009 A 2.562 2.562 0 0 1 261.232 272.97 A 2.715 2.715 0 0 1 261.616 273 Q 261.803 273.027 262.011 273.078 A 5.457 5.457 0 0 1 262.268 273.148 L 262.05 273.824 Q 261.704 273.712 261.429 273.679 A 1.813 1.813 0 0 0 261.217 273.666 Q 260.74 273.666 260.511 273.983 A 0.975 0.975 0 0 0 260.382 274.243 Q 260.283 274.539 260.283 275.002 L 260.283 275.362 L 261.699 275.362 Z M 257.754 277.764 L 257.754 278.297 L 253.92 278.297 A 3.383 3.383 0 0 0 253.979 278.864 Q 254.04 279.172 254.162 279.416 A 1.583 1.583 0 0 0 254.415 279.785 A 1.532 1.532 0 0 0 255.219 280.238 A 2.321 2.321 0 0 0 255.738 280.293 A 4.452 4.452 0 0 0 257.405 279.963 A 5.101 5.101 0 0 0 257.515 279.917 L 257.515 280.669 A 5.061 5.061 0 0 1 257.054 280.843 A 3.87 3.87 0 0 1 256.67 280.946 A 3.539 3.539 0 0 1 256.318 281 Q 256.146 281.018 255.95 281.025 A 6.868 6.868 0 0 1 255.707 281.029 A 3.276 3.276 0 0 1 254.888 280.932 A 2.319 2.319 0 0 1 253.76 280.278 A 2.481 2.481 0 0 1 253.166 279.188 Q 253.046 278.738 253.046 278.191 Q 253.046 277.094 253.487 276.365 A 2.496 2.496 0 0 1 253.709 276.053 A 2.16 2.16 0 0 1 255.283 275.268 A 2.98 2.98 0 0 1 255.489 275.261 A 2.568 2.568 0 0 1 256.212 275.357 A 1.954 1.954 0 0 1 257.144 275.949 A 2.357 2.357 0 0 1 257.678 277.026 A 3.431 3.431 0 0 1 257.754 277.764 Z M 265.274 280.232 L 265.274 280.877 A 0.829 0.829 0 0 1 265.176 280.916 Q 265.071 280.951 264.921 280.978 A 3.153 3.153 0 0 1 264.871 280.986 Q 264.622 281.027 264.419 281.029 A 2.16 2.16 0 0 1 264.391 281.029 A 2.202 2.202 0 0 1 263.742 280.942 Q 263.029 280.722 262.842 279.947 A 2.65 2.65 0 0 1 262.776 279.328 L 262.776 276.017 L 261.979 276.017 L 261.979 275.611 L 262.776 275.261 L 263.131 274.072 L 263.619 274.072 L 263.619 275.362 L 265.234 275.362 L 265.234 276.017 L 263.619 276.017 L 263.619 279.293 A 1.697 1.697 0 0 0 263.643 279.591 Q 263.695 279.882 263.858 280.065 A 0.783 0.783 0 0 0 264.339 280.321 A 1.127 1.127 0 0 0 264.513 280.334 A 2.768 2.768 0 0 0 264.918 280.305 A 2.547 2.547 0 0 0 264.944 280.301 A 4.56 4.56 0 0 0 265.066 280.28 Q 265.191 280.257 265.274 280.232 Z M 251.569 273.026 L 251.569 280.928 L 250.726 280.928 L 250.726 273.026 L 251.569 273.026 Z M 253.94 277.612 L 256.85 277.612 A 2.873 2.873 0 0 0 256.815 277.15 Q 256.739 276.682 256.494 276.391 A 1.155 1.155 0 0 0 255.799 275.995 A 1.732 1.732 0 0 0 255.479 275.966 A 1.662 1.662 0 0 0 254.999 276.032 A 1.284 1.284 0 0 0 254.41 276.403 Q 254.011 276.84 253.94 277.612 Z" id="left_labelLayer" stroke="#777777" fill="#777777" style="stroke:#777777;fill:#777777" vector-effect="non-scaling-stroke"/><path d="M 351 168 L 351 183 L 336 183 L 336 213 L 351 213 L 351 243 L 336 243 L 336 273 L 351 273 L 351 303 L 351 288 L 351 303 L 381 303 L 381 288 L 411 288 L 411 303 L 441 303 L 441 288 L 471 288 L 471 303 L 501 303 L 501 288 L 501 273 L 516 273 L 516 243 L 501 243 L 501 213 L 516 213 L 516 183 L 501 183 L 501 153 L 501 168 L 501 153 L 471 153 L 471 168 L 441 168 L 441 153 L 411 153 L 411 168 L 381 168 L 381 153 L 351 153 L 351 168 Z" id="top_outsideCutPath" stroke="#FF0000" stroke-width="0.1" style="stroke:#FF0000;stroke-width:0.1" vector-effect="non-scaling-stroke"/><path d="M 436.781 232.219 L 436.605 232.219 Q 436.781 233.625 436.781 234.885 L 436.781 241.491 L 434.349 241.491 L 434.349 218.229 L 436.327 218.229 L 436.664 220.427 L 436.781 220.427 A 6.545 6.545 0 0 1 437.728 219.352 A 5.061 5.061 0 0 1 438.964 218.522 A 6.09 6.09 0 0 1 440.709 218.012 A 7.882 7.882 0 0 1 441.82 217.937 A 7.454 7.454 0 0 1 443.926 218.218 A 5.509 5.509 0 0 1 446.749 220.119 Q 448.485 222.302 448.485 226.242 A 14.257 14.257 0 0 1 448.296 228.641 Q 447.908 230.914 446.72 232.387 A 5.757 5.757 0 0 1 442.629 234.539 A 8.247 8.247 0 0 1 441.82 234.577 A 7.376 7.376 0 0 1 439.967 234.351 A 6.418 6.418 0 0 1 438.956 233.999 A 5.386 5.386 0 0 1 436.781 232.219 Z M 413.021 232.277 L 413.021 234.138 A 2.392 2.392 0 0 1 412.738 234.25 Q 412.386 234.367 411.857 234.453 Q 411.139 234.569 410.555 234.577 A 6.232 6.232 0 0 1 410.473 234.577 A 6.351 6.351 0 0 1 408.601 234.325 Q 406.544 233.69 406.005 231.456 A 7.643 7.643 0 0 1 405.814 229.67 L 405.814 220.119 L 403.515 220.119 L 403.515 218.947 L 405.814 217.937 L 406.84 214.509 L 408.246 214.509 L 408.246 218.229 L 412.904 218.229 L 412.904 220.119 L 408.246 220.119 L 408.246 229.567 Q 408.246 230.586 408.586 231.273 A 2.359 2.359 0 0 0 408.934 231.794 A 2.259 2.259 0 0 0 410.323 232.533 A 3.25 3.25 0 0 0 410.824 232.57 A 7.986 7.986 0 0 0 411.994 232.487 A 7.359 7.359 0 0 0 412.069 232.475 A 13.154 13.154 0 0 0 412.42 232.415 Q 412.78 232.348 413.021 232.277 Z M 429.864 228.686 A 12.56 12.56 0 0 0 430.087 226.242 A 14.272 14.272 0 0 0 430.082 225.856 Q 430.045 224.519 429.756 223.384 A 7.572 7.572 0 0 0 428.102 220.178 A 6.366 6.366 0 0 0 425.147 218.272 A 8.171 8.171 0 0 0 422.748 217.937 A 9.444 9.444 0 0 0 421.052 218.082 A 6.432 6.432 0 0 0 417.299 220.126 Q 415.336 222.316 415.336 226.242 A 12.165 12.165 0 0 0 415.489 228.213 A 8.995 8.995 0 0 0 416.244 230.666 A 7.992 7.992 0 0 0 416.421 231.013 A 6.583 6.583 0 0 0 418.822 233.566 A 6.771 6.771 0 0 0 420.376 234.257 A 7.809 7.809 0 0 0 422.645 234.577 A 9.442 9.442 0 0 0 424.294 234.439 A 6.483 6.483 0 0 0 428.109 232.373 A 6.783 6.783 0 0 0 428.917 231.263 Q 429.576 230.136 429.864 228.686 Z M 417.855 226.242 A 12.314 12.314 0 0 0 417.973 228.001 Q 418.102 228.894 418.373 229.618 A 5.101 5.101 0 0 0 419.086 230.93 A 3.985 3.985 0 0 0 421.681 232.458 A 6.039 6.039 0 0 0 422.704 232.541 A 5.648 5.648 0 0 0 424.194 232.356 A 3.931 3.931 0 0 0 426.329 230.937 A 5.22 5.22 0 0 0 427.142 229.354 Q 427.381 228.622 427.486 227.729 A 12.809 12.809 0 0 0 427.567 226.242 A 12.133 12.133 0 0 0 427.452 224.513 Q 427.19 222.696 426.329 221.591 A 4 4 0 0 0 423.843 220.108 A 6.133 6.133 0 0 0 422.675 220.002 A 5.787 5.787 0 0 0 421.234 220.171 A 3.873 3.873 0 0 0 419.071 221.569 A 5.028 5.028 0 0 0 418.29 223.08 Q 417.855 224.386 417.855 226.242 Z M 436.781 225.7 L 436.781 226.242 A 16.078 16.078 0 0 0 436.861 227.904 Q 437.036 229.581 437.595 230.601 A 3.668 3.668 0 0 0 437.909 231.083 A 3.528 3.528 0 0 0 439.699 232.291 Q 440.297 232.479 441.026 232.525 A 7.819 7.819 0 0 0 441.527 232.541 A 4.097 4.097 0 0 0 443.12 232.242 Q 444.039 231.858 444.695 230.983 A 4.845 4.845 0 0 0 444.786 230.856 Q 445.966 229.172 445.966 226.213 A 12.271 12.271 0 0 0 445.851 224.473 Q 445.724 223.591 445.458 222.874 A 5.155 5.155 0 0 0 444.786 221.606 A 3.783 3.783 0 0 0 442.02 220.03 A 5.232 5.232 0 0 0 441.469 220.002 A 7.006 7.006 0 0 0 440.16 220.116 Q 439.431 220.255 438.871 220.563 A 3.213 3.213 0 0 0 437.909 221.364 Q 436.881 222.64 436.789 225.327 A 15.476 15.476 0 0 0 436.781 225.7 Z" id="top_labelLayer" stroke="#777777" fill="#777777" style="stroke:#777777;fill:#777777" vector-effect="non-scaling-stroke"/><path d="M 0 196 L 0 237 L 0 248 L 15 248 L 15 233 L 45 233 L 45 248 L 75 248 L 75 233 L 105 233 L 105 248 L 135 248 L 135 233 L 165 233 L 165 248 L 180 248 L 180 207 L 180 196 L 165 196 L 165 211 L 135 211 L 135 196 L 105 196 L 105 211 L 75 211 L 75 196 L 45 196 L 45 211 L 15 211 L 15 196 L 0 196 Z" id="back_outsideCutPath" stroke="#FF0000" stroke-width="0.1" style="stroke:#FF0000;stroke-width:0.1" vector-effect="non-scaling-stroke"/><path d="M 97.12 223.051 L 97.16 223.051 Q 97.379 222.741 97.825 222.239 L 99.623 220.334 L 100.623 220.334 L 98.369 222.706 L 100.781 225.9 L 99.76 225.9 L 97.795 223.269 L 97.16 223.818 L 97.16 225.9 L 96.327 225.9 L 96.327 217.998 L 97.16 217.998 L 97.16 222.188 A 5.618 5.618 0 0 1 97.158 222.347 Q 97.15 222.607 97.121 223.03 A 35.798 35.798 0 0 1 97.12 223.051 Z M 80.062 225.184 L 80.001 225.184 L 79.823 225.9 L 79.219 225.9 L 79.219 217.998 L 80.062 217.998 L 80.062 219.918 Q 80.062 220.563 80.021 221.076 L 80.062 221.076 A 1.917 1.917 0 0 1 81.461 220.263 A 2.879 2.879 0 0 1 81.809 220.243 A 2.576 2.576 0 0 1 82.534 220.34 A 1.929 1.929 0 0 1 83.513 220.992 A 2.484 2.484 0 0 1 83.948 221.831 Q 84.12 222.384 84.12 223.112 A 4.943 4.943 0 0 1 84.054 223.944 Q 83.978 224.387 83.815 224.742 A 2.369 2.369 0 0 1 83.508 225.242 A 1.996 1.996 0 0 1 82.089 225.988 A 2.859 2.859 0 0 1 81.809 226.002 A 2.557 2.557 0 0 1 81.166 225.923 A 2.225 2.225 0 0 1 80.816 225.801 Q 80.367 225.6 80.062 225.184 Z M 89.639 225.9 L 89.015 225.9 L 88.847 225.108 L 88.807 225.108 Q 88.39 225.631 87.976 225.816 Q 87.635 225.969 87.154 225.996 A 3.794 3.794 0 0 1 86.943 226.002 Q 86.281 226.002 85.848 225.729 A 1.452 1.452 0 0 1 85.646 225.575 A 1.386 1.386 0 0 1 85.228 224.844 A 2.121 2.121 0 0 1 85.176 224.361 Q 85.176 222.73 87.701 222.601 A 8.234 8.234 0 0 1 87.872 222.594 L 88.817 222.564 L 88.817 222.218 Q 88.817 221.818 88.712 221.546 A 0.941 0.941 0 0 0 88.535 221.251 Q 88.31 221.002 87.87 220.951 A 2.083 2.083 0 0 0 87.634 220.939 Q 87.074 220.939 86.397 221.214 A 5.645 5.645 0 0 0 86.059 221.365 L 85.8 220.72 A 3.887 3.887 0 0 1 86.551 220.412 A 4.424 4.424 0 0 1 86.702 220.37 A 3.904 3.904 0 0 1 87.684 220.243 Q 88.307 220.243 88.728 220.416 A 1.435 1.435 0 0 1 89.16 220.685 A 1.335 1.335 0 0 1 89.504 221.216 Q 89.639 221.584 89.639 222.102 L 89.639 225.9 Z M 95.088 220.522 L 94.829 221.238 A 3.75 3.75 0 0 0 94.422 221.103 A 4.479 4.479 0 0 0 94.22 221.053 A 3.482 3.482 0 0 0 93.955 221.004 Q 93.826 220.985 93.711 220.981 A 1.869 1.869 0 0 0 93.636 220.979 A 1.87 1.87 0 0 0 92.877 221.122 Q 91.94 221.535 91.94 223.143 A 4.082 4.082 0 0 0 91.98 223.737 Q 92.025 224.038 92.118 224.283 A 1.748 1.748 0 0 0 92.354 224.717 A 1.339 1.339 0 0 0 93.221 225.235 A 2.039 2.039 0 0 0 93.58 225.265 A 3.529 3.529 0 0 0 94.553 225.124 A 4.357 4.357 0 0 0 95.007 224.966 L 95.007 225.712 A 2.398 2.398 0 0 1 94.42 225.92 Q 94.051 226.002 93.6 226.002 A 3.151 3.151 0 0 1 92.834 225.914 A 2.136 2.136 0 0 1 91.729 225.258 A 2.438 2.438 0 0 1 91.222 224.326 Q 91.11 223.957 91.079 223.512 A 5.097 5.097 0 0 1 91.066 223.153 A 4.651 4.651 0 0 1 91.138 222.307 Q 91.226 221.835 91.419 221.463 A 2.324 2.324 0 0 1 91.739 220.994 A 2.183 2.183 0 0 1 92.934 220.307 A 3.309 3.309 0 0 1 93.656 220.233 A 3.804 3.804 0 0 1 94.459 220.319 A 4.207 4.207 0 0 1 94.692 220.376 Q 94.927 220.441 95.083 220.52 A 1.235 1.235 0 0 1 95.088 220.522 Z M 80.769 221.158 A 1.121 1.121 0 0 0 80.443 221.444 A 1.443 1.443 0 0 0 80.234 221.842 Q 80.093 222.237 80.068 222.837 A 6.495 6.495 0 0 0 80.062 223.112 A 5.574 5.574 0 0 0 80.09 223.688 Q 80.15 224.269 80.344 224.623 A 1.271 1.271 0 0 0 80.453 224.79 A 1.223 1.223 0 0 0 81.073 225.209 Q 81.281 225.274 81.534 225.29 A 2.711 2.711 0 0 0 81.707 225.296 A 1.68 1.68 0 0 0 82.185 225.232 A 1.212 1.212 0 0 0 82.865 224.729 Q 83.137 224.325 83.215 223.668 A 4.83 4.83 0 0 0 83.246 223.102 A 4.98 4.98 0 0 0 83.216 222.534 Q 83.145 221.914 82.904 221.539 A 1.398 1.398 0 0 0 82.865 221.482 Q 82.484 220.949 81.687 220.949 Q 81.126 220.949 80.769 221.158 Z M 88.796 223.666 L 88.796 223.163 L 87.954 223.198 A 6.19 6.19 0 0 0 87.459 223.234 Q 86.83 223.307 86.504 223.511 A 0.899 0.899 0 0 0 86.075 224.163 A 1.331 1.331 0 0 0 86.059 224.371 Q 86.059 224.828 86.336 225.067 A 0.918 0.918 0 0 0 86.68 225.25 Q 86.869 225.306 87.111 225.306 A 2.321 2.321 0 0 0 87.612 225.255 Q 87.961 225.178 88.219 224.983 A 1.407 1.407 0 0 0 88.347 224.874 Q 88.794 224.445 88.796 223.674 A 2.669 2.669 0 0 0 88.796 223.666 Z" id="back_labelLayer" stroke="#777777" fill="#777777" style="stroke:#777777;fill:#777777" vector-effect="non-scaling-stroke"/><path d="M 198 196 L 198 237 L 198 248 L 213 248 L 213 233 L 243 233 L 243 248 L 273 248 L 273 233 L 303 233 L 303 248 L 333 248 L 318 248 L 318 207 L 318 196 L 303 196 L 303 211 L 273 211 L 273 196 L 243 196 L 243 211 L 213 211 L 213 196 L 183 196 L 198 196 Z" id="right_outsideCutPath" stroke="#FF0000" stroke-width="0.1" style="stroke:#FF0000;stroke-width:0.1" vector-effect="non-scaling-stroke"/><path d="M 264.467 224.702 L 263.624 224.702 L 263.624 221.101 A 2.383 2.383 0 0 0 263.597 220.728 Q 263.532 220.321 263.314 220.086 Q 263.063 219.814 262.583 219.763 A 2.235 2.235 0 0 0 262.344 219.75 A 2.551 2.551 0 0 0 261.867 219.792 Q 261.603 219.842 261.399 219.954 A 1.18 1.18 0 0 0 261.062 220.228 Q 260.693 220.664 260.661 221.61 A 5.441 5.441 0 0 0 260.658 221.792 L 260.658 224.702 L 259.815 224.702 L 259.815 216.8 L 260.658 216.8 L 260.658 219.192 A 7.583 7.583 0 0 1 260.653 219.483 Q 260.644 219.726 260.618 219.908 L 260.669 219.908 Q 260.917 219.507 261.377 219.276 A 2.164 2.164 0 0 1 262.087 219.065 A 2.736 2.736 0 0 1 262.426 219.045 A 3.42 3.42 0 0 1 263 219.09 Q 263.306 219.142 263.548 219.254 A 1.519 1.519 0 0 1 263.957 219.529 Q 264.353 219.906 264.442 220.628 A 3.645 3.645 0 0 1 264.467 221.071 L 264.467 224.702 Z M 256.748 219.136 L 258.673 219.136 L 258.673 219.669 L 257.642 219.791 A 1.37 1.37 0 0 1 257.761 219.967 Q 257.813 220.059 257.86 220.168 A 2.599 2.599 0 0 1 257.896 220.256 A 1.622 1.622 0 0 1 257.992 220.643 A 2.083 2.083 0 0 1 258.008 220.903 A 1.932 1.932 0 0 1 257.919 221.502 A 1.563 1.563 0 0 1 257.449 222.208 A 1.87 1.87 0 0 1 256.714 222.596 Q 256.435 222.674 256.105 222.691 A 3.661 3.661 0 0 1 255.915 222.696 A 2.709 2.709 0 0 1 255.602 222.678 A 2.288 2.288 0 0 1 255.448 222.655 Q 254.91 222.939 254.91 223.371 A 0.437 0.437 0 0 0 254.932 223.514 Q 254.975 223.637 255.098 223.709 A 0.591 0.591 0 0 0 255.229 223.763 Q 255.366 223.803 255.575 223.814 A 3.207 3.207 0 0 0 255.743 223.818 L 256.728 223.818 A 3.451 3.451 0 0 1 257.252 223.855 Q 257.526 223.897 257.747 223.987 A 1.523 1.523 0 0 1 258.117 224.199 A 1.233 1.233 0 0 1 258.575 224.984 A 1.852 1.852 0 0 1 258.602 225.306 Q 258.602 226.212 257.889 226.696 A 2.004 2.004 0 0 1 257.86 226.715 A 2.528 2.528 0 0 1 257.209 227.011 Q 256.586 227.2 255.697 227.2 Q 254.981 227.2 254.48 227.025 A 1.959 1.959 0 0 1 254.014 226.794 Q 253.46 226.414 253.425 225.741 A 1.78 1.78 0 0 1 253.422 225.646 Q 253.422 225.138 253.747 224.768 A 1.472 1.472 0 0 1 254.253 224.399 A 2.086 2.086 0 0 1 254.661 224.265 A 0.875 0.875 0 0 1 254.321 223.99 A 1.039 1.039 0 0 1 254.303 223.965 A 0.782 0.782 0 0 1 254.16 223.543 A 0.968 0.968 0 0 1 254.158 223.493 A 0.964 0.964 0 0 1 254.207 223.182 A 0.854 0.854 0 0 1 254.321 222.96 A 1.207 1.207 0 0 1 254.48 222.78 Q 254.565 222.701 254.674 222.623 A 2.648 2.648 0 0 1 254.834 222.518 A 1.478 1.478 0 0 1 254.192 222.004 A 1.832 1.832 0 0 1 254.13 221.914 A 1.743 1.743 0 0 1 253.863 221.074 A 2.127 2.127 0 0 1 253.859 220.939 A 2.435 2.435 0 0 1 253.923 220.363 A 1.602 1.602 0 0 1 254.407 219.529 A 1.79 1.79 0 0 1 255.094 219.151 Q 255.367 219.067 255.696 219.044 A 3.723 3.723 0 0 1 255.961 219.034 A 3.231 3.231 0 0 1 256.389 219.061 A 2.461 2.461 0 0 1 256.748 219.136 Z M 268.758 224.006 L 268.758 224.651 A 0.829 0.829 0 0 1 268.66 224.69 Q 268.555 224.725 268.405 224.751 A 3.153 3.153 0 0 1 268.354 224.76 Q 268.105 224.8 267.903 224.803 A 2.16 2.16 0 0 1 267.874 224.803 A 2.202 2.202 0 0 1 267.226 224.716 Q 266.512 224.496 266.326 223.721 A 2.65 2.65 0 0 1 266.26 223.102 L 266.26 219.791 L 265.462 219.791 L 265.462 219.385 L 266.26 219.034 L 266.615 217.846 L 267.103 217.846 L 267.103 219.136 L 268.717 219.136 L 268.717 219.791 L 267.103 219.791 L 267.103 223.066 A 1.697 1.697 0 0 0 267.127 223.364 Q 267.179 223.655 267.341 223.838 A 0.783 0.783 0 0 0 267.823 224.095 A 1.127 1.127 0 0 0 267.996 224.107 A 2.768 2.768 0 0 0 268.402 224.078 A 2.547 2.547 0 0 0 268.428 224.074 A 4.56 4.56 0 0 0 268.55 224.054 Q 268.674 224.03 268.758 224.006 Z M 250.446 219.095 L 250.329 219.877 A 3.715 3.715 0 0 0 250.062 219.828 Q 249.929 219.809 249.811 219.803 A 1.977 1.977 0 0 0 249.72 219.801 A 1.461 1.461 0 0 0 248.641 220.267 A 1.998 1.998 0 0 0 248.565 220.35 A 1.925 1.925 0 0 0 248.1 221.43 A 2.559 2.559 0 0 0 248.085 221.716 L 248.085 224.702 L 247.242 224.702 L 247.242 219.136 L 247.938 219.136 L 248.034 220.167 L 248.075 220.167 A 2.847 2.847 0 0 1 248.393 219.712 A 2.175 2.175 0 0 1 248.821 219.329 A 1.68 1.68 0 0 1 249.781 219.034 A 3.87 3.87 0 0 1 250.128 219.049 A 2.825 2.825 0 0 1 250.446 219.095 Z M 252.33 219.136 L 252.33 224.702 L 251.487 224.702 L 251.487 219.136 L 252.33 219.136 Z M 256.459 224.575 L 255.448 224.575 Q 255.028 224.575 254.744 224.722 A 0.987 0.987 0 0 0 254.554 224.849 A 0.888 0.888 0 0 0 254.263 225.352 A 1.349 1.349 0 0 0 254.235 225.636 A 0.847 0.847 0 0 0 254.29 225.95 Q 254.38 226.177 254.615 226.321 Q 254.996 226.555 255.707 226.555 A 5.667 5.667 0 0 0 256.261 226.53 Q 256.815 226.475 257.164 226.302 A 1.4 1.4 0 0 0 257.279 226.238 A 1.23 1.23 0 0 0 257.564 225.999 A 0.922 0.922 0 0 0 257.789 225.377 Q 257.789 225.097 257.682 224.923 A 0.531 0.531 0 0 0 257.51 224.75 Q 257.231 224.575 256.459 224.575 Z M 254.692 220.918 A 1.645 1.645 0 0 0 254.725 221.263 Q 254.797 221.598 255.022 221.802 Q 255.319 222.072 255.827 222.099 A 2.171 2.171 0 0 0 255.941 222.102 A 1.836 1.836 0 0 0 256.422 222.044 Q 257.175 221.839 257.175 220.903 Q 257.175 219.908 256.388 219.702 A 1.833 1.833 0 0 0 255.926 219.649 Q 255.47 219.649 255.176 219.837 A 0.97 0.97 0 0 0 255.012 219.969 A 1.012 1.012 0 0 0 254.767 220.381 Q 254.715 220.541 254.699 220.735 A 2.218 2.218 0 0 0 254.692 220.918 Z M 251.416 217.628 Q 251.416 217.338 251.558 217.204 A 0.487 0.487 0 0 1 251.871 217.07 A 0.644 0.644 0 0 1 251.914 217.069 A 0.497 0.497 0 0 1 252.264 217.206 A 0.426 0.426 0 0 1 252.376 217.385 Q 252.399 217.453 252.407 217.536 A 0.964 0.964 0 0 1 252.412 217.628 A 0.872 0.872 0 0 1 252.398 217.788 Q 252.381 217.876 252.345 217.945 A 0.411 0.411 0 0 1 252.264 218.052 A 0.492 0.492 0 0 1 251.914 218.191 A 0.535 0.535 0 0 1 251.73 218.161 A 0.473 0.473 0 0 1 251.558 218.052 A 0.435 0.435 0 0 1 251.452 217.878 Q 251.416 217.771 251.416 217.628 Z" id="right_labelLayer" stroke="#777777" fill="#777777" style="stroke:#777777;fill:#777777" vector-effect="non-scaling-stroke"/><path d="M 351 15 L 351 30 L 336 30 L 336 60 L 351 60 L 351 90 L 336 90 L 336 120 L 351 120 L 351 150 L 351 135 L 351 150 L 381 150 L 381 135 L 411 135 L 411 150 L 441 150 L 441 135 L 471 135 L 471 150 L 501 150 L 501 135 L 501 120 L 516 120 L 516 90 L 501 90 L 501 60 L 516 60 L 516 30 L 501 30 L 501 0 L 501 15 L 501 0 L 471 0 L 471 15 L 441 15 L 441 0 L 411 0 L 411 15 L 381 15 L 381 0 L 351 0 L 351 15 Z" id="bottom_outsideCutPath" stroke="#FF0000" stroke-width="0.1" style="stroke:#FF0000;stroke-width:0.1" vector-effect="non-scaling-stroke"/><path d="M 475.351 86.25 L 472.919 86.25 L 472.919 75.805 A 7.174 7.174 0 0 0 472.847 74.75 Q 472.675 73.601 472.099 72.927 Q 471.278 71.967 469.55 71.967 A 6.257 6.257 0 0 0 468.276 72.088 Q 466.949 72.365 466.195 73.271 A 4.018 4.018 0 0 0 465.514 74.504 Q 465.111 75.633 465.111 77.285 L 465.111 86.25 L 462.68 86.25 L 462.68 75.805 A 7.174 7.174 0 0 0 462.607 74.75 Q 462.436 73.601 461.859 72.927 A 2.551 2.551 0 0 0 460.686 72.164 Q 460.264 72.026 459.748 71.985 A 5.694 5.694 0 0 0 459.296 71.967 A 6.039 6.039 0 0 0 458.047 72.088 Q 457.276 72.251 456.702 72.634 A 3.187 3.187 0 0 0 455.949 73.337 Q 454.986 74.578 454.896 77.257 A 16.93 16.93 0 0 0 454.887 77.827 L 454.887 86.25 L 452.455 86.25 L 452.455 70.195 L 454.433 70.195 L 454.828 72.392 L 454.945 72.392 A 4.779 4.779 0 0 1 456.886 70.561 A 5.773 5.773 0 0 1 459.166 69.921 A 6.973 6.973 0 0 1 459.691 69.902 A 7.961 7.961 0 0 1 461.483 70.089 Q 462.586 70.344 463.354 70.947 A 4.151 4.151 0 0 1 464.613 72.627 L 464.73 72.627 A 5.077 5.077 0 0 1 466.643 70.728 A 6.1 6.1 0 0 1 466.81 70.634 A 6.154 6.154 0 0 1 469.068 69.948 A 7.674 7.674 0 0 1 469.916 69.902 A 8.453 8.453 0 0 1 471.449 70.032 Q 472.301 70.189 472.967 70.538 A 4.007 4.007 0 0 1 473.996 71.301 A 4.187 4.187 0 0 1 474.895 72.772 Q 475.137 73.42 475.25 74.227 A 11.153 11.153 0 0 1 475.351 75.776 L 475.351 86.25 Z M 379.081 84.184 L 378.905 84.184 L 378.393 86.25 L 376.649 86.25 L 376.649 63.457 L 379.081 63.457 L 379.081 68.994 Q 379.081 70.854 378.964 72.334 L 379.081 72.334 Q 380.78 69.931 384.12 69.931 A 7.432 7.432 0 0 1 386.212 70.21 A 5.563 5.563 0 0 1 389.035 72.092 Q 390.785 74.253 390.785 78.208 A 14.257 14.257 0 0 1 390.596 80.607 Q 390.208 82.879 389.02 84.353 A 5.757 5.757 0 0 1 384.929 86.504 A 8.247 8.247 0 0 1 384.12 86.543 A 7.376 7.376 0 0 1 382.267 86.317 A 6.418 6.418 0 0 1 381.256 85.964 A 5.386 5.386 0 0 1 379.081 84.184 Z M 420.536 84.243 L 420.536 86.103 A 2.392 2.392 0 0 1 420.252 86.216 Q 419.9 86.332 419.372 86.418 Q 418.654 86.534 418.07 86.542 A 6.232 6.232 0 0 1 417.987 86.543 A 6.351 6.351 0 0 1 416.116 86.291 Q 414.058 85.656 413.52 83.421 A 7.643 7.643 0 0 1 413.329 81.635 L 413.329 72.085 L 411.029 72.085 L 411.029 70.913 L 413.329 69.902 L 414.354 66.474 L 415.761 66.474 L 415.761 70.195 L 420.419 70.195 L 420.419 72.085 L 415.761 72.085 L 415.761 81.533 Q 415.761 82.552 416.101 83.238 A 2.359 2.359 0 0 0 416.449 83.759 A 2.259 2.259 0 0 0 417.838 84.499 A 3.25 3.25 0 0 0 418.339 84.536 A 7.986 7.986 0 0 0 419.509 84.452 A 7.359 7.359 0 0 0 419.584 84.441 A 13.154 13.154 0 0 0 419.935 84.38 Q 420.294 84.313 420.536 84.243 Z M 431.127 84.243 L 431.127 86.103 A 2.392 2.392 0 0 1 430.843 86.216 Q 430.491 86.332 429.962 86.418 Q 429.244 86.534 428.66 86.542 A 6.232 6.232 0 0 1 428.578 86.543 A 6.351 6.351 0 0 1 426.706 86.291 Q 424.649 85.656 424.111 83.421 A 7.643 7.643 0 0 1 423.92 81.635 L 423.92 72.085 L 421.62 72.085 L 421.62 70.913 L 423.92 69.902 L 424.945 66.474 L 426.351 66.474 L 426.351 70.195 L 431.01 70.195 L 431.01 72.085 L 426.351 72.085 L 426.351 81.533 Q 426.351 82.552 426.691 83.238 A 2.359 2.359 0 0 0 427.04 83.759 A 2.259 2.259 0 0 0 428.429 84.499 A 3.25 3.25 0 0 0 428.93 84.536 A 7.986 7.986 0 0 0 430.099 84.452 A 7.359 7.359 0 0 0 430.175 84.441 A 13.154 13.154 0 0 0 430.526 84.38 Q 430.885 84.313 431.127 84.243 Z M 408.667 80.651 A 12.56 12.56 0 0 0 408.891 78.208 A 14.272 14.272 0 0 0 408.885 77.822 Q 408.849 76.485 408.56 75.35 A 7.572 7.572 0 0 0 406.906 72.143 A 6.366 6.366 0 0 0 403.95 70.237 A 8.171 8.171 0 0 0 401.552 69.902 A 9.444 9.444 0 0 0 399.855 70.048 A 6.432 6.432 0 0 0 396.102 72.092 Q 394.14 74.282 394.14 78.208 A 12.165 12.165 0 0 0 394.292 80.178 A 8.995 8.995 0 0 0 395.048 82.631 A 7.992 7.992 0 0 0 395.225 82.978 A 6.583 6.583 0 0 0 397.626 85.532 A 6.771 6.771 0 0 0 399.18 86.223 A 7.809 7.809 0 0 0 401.449 86.543 A 9.442 9.442 0 0 0 403.098 86.405 A 6.483 6.483 0 0 0 406.913 84.338 A 6.783 6.783 0 0 0 407.721 83.228 Q 408.38 82.101 408.667 80.651 Z M 447.969 80.651 A 12.56 12.56 0 0 0 448.192 78.208 A 14.272 14.272 0 0 0 448.187 77.822 Q 448.151 76.485 447.862 75.35 A 7.572 7.572 0 0 0 446.207 72.143 A 6.366 6.366 0 0 0 443.252 70.237 A 8.171 8.171 0 0 0 440.853 69.902 A 9.444 9.444 0 0 0 439.157 70.048 A 6.432 6.432 0 0 0 435.404 72.092 Q 433.441 74.282 433.441 78.208 A 12.165 12.165 0 0 0 433.594 80.178 A 8.995 8.995 0 0 0 434.35 82.631 A 7.992 7.992 0 0 0 434.527 82.978 A 6.583 6.583 0 0 0 436.928 85.532 A 6.771 6.771 0 0 0 438.482 86.223 A 7.809 7.809 0 0 0 440.751 86.543 A 9.442 9.442 0 0 0 442.4 86.405 A 6.483 6.483 0 0 0 446.215 84.338 A 6.783 6.783 0 0 0 447.022 83.228 Q 447.681 82.101 447.969 80.651 Z M 396.659 78.208 A 12.314 12.314 0 0 0 396.776 79.967 Q 396.906 80.86 397.177 81.583 A 5.101 5.101 0 0 0 397.89 82.895 A 3.985 3.985 0 0 0 400.485 84.424 A 6.039 6.039 0 0 0 401.508 84.506 A 5.648 5.648 0 0 0 402.998 84.321 A 3.931 3.931 0 0 0 405.133 82.902 A 5.22 5.22 0 0 0 405.946 81.319 Q 406.185 80.588 406.29 79.695 A 12.809 12.809 0 0 0 406.371 78.208 A 12.133 12.133 0 0 0 406.256 76.479 Q 405.994 74.662 405.133 73.557 A 4 4 0 0 0 402.646 72.073 A 6.133 6.133 0 0 0 401.478 71.967 A 5.787 5.787 0 0 0 400.038 72.136 A 3.873 3.873 0 0 0 397.875 73.535 A 5.028 5.028 0 0 0 397.093 75.045 Q 396.659 76.352 396.659 78.208 Z M 435.961 78.208 A 12.314 12.314 0 0 0 436.078 79.967 Q 436.207 80.86 436.479 81.583 A 5.101 5.101 0 0 0 437.191 82.895 A 3.985 3.985 0 0 0 439.787 84.424 A 6.039 6.039 0 0 0 440.809 84.506 A 5.648 5.648 0 0 0 442.3 84.321 A 3.931 3.931 0 0 0 444.435 82.902 A 5.22 5.22 0 0 0 445.248 81.319 Q 445.487 80.588 445.591 79.695 A 12.809 12.809 0 0 0 445.673 78.208 A 12.133 12.133 0 0 0 445.558 76.479 Q 445.296 74.662 444.435 73.557 A 4 4 0 0 0 441.948 72.073 A 6.133 6.133 0 0 0 440.78 71.967 A 5.787 5.787 0 0 0 439.339 72.136 A 3.873 3.873 0 0 0 437.177 73.535 A 5.028 5.028 0 0 0 436.395 75.045 Q 435.961 76.352 435.961 78.208 Z M 383.768 71.967 Q 381.278 71.967 380.18 73.396 Q 379.214 74.65 379.097 77.415 A 18.735 18.735 0 0 0 379.081 78.208 A 16.078 16.078 0 0 0 379.161 79.869 Q 379.335 81.546 379.895 82.566 A 3.668 3.668 0 0 0 380.209 83.049 A 3.528 3.528 0 0 0 381.998 84.257 Q 382.597 84.444 383.326 84.491 A 7.819 7.819 0 0 0 383.827 84.506 A 4.847 4.847 0 0 0 385.204 84.322 A 3.497 3.497 0 0 0 387.167 82.873 Q 387.952 81.706 388.176 79.811 A 13.933 13.933 0 0 0 388.266 78.178 A 14.366 14.366 0 0 0 388.179 76.541 Q 387.957 74.611 387.167 73.505 A 3.546 3.546 0 0 0 384.909 72.077 A 5.624 5.624 0 0 0 383.768 71.967 Z" id="bottom_labelLayer" stroke="#777777" fill="#777777" style="stroke:#777777;fill:#777777" vector-effect="non-scaling-stroke"/></g></svg>